<svg width="512" height="512" viewBox="0 0 512 512" fill="none" xmlns="http://www.w3.org/2000/svg">
<rect width="512" height="512" rx="64" fill="#0A0A0A"/>
<path d="M205.388 422.72C185.878 422.72 167.942 417.843 151.58 408.088C135.217 398.333 122.158 384.331 112.404 366.08C102.649 347.515 97.7716 325.488 97.7716 300C97.7716 273.883 102.964 251.699 113.348 233.448C123.732 215.197 137.42 201.352 154.412 191.912C171.404 182.157 189.654 177.28 209.164 177.28C228.673 177.28 245.508 182.315 259.668 192.384C274.142 202.453 283.74 215.827 288.46 232.504L283.74 235.808V73.44H321.5V418H288.46L285.156 360.888L290.348 358.056C288.145 371.901 282.796 383.701 274.3 393.456C266.118 402.896 255.892 410.133 243.62 415.168C231.662 420.203 218.918 422.72 205.388 422.72ZM209.164 389.68C224.268 389.68 237.326 385.904 248.34 378.352C259.668 370.8 268.321 360.101 274.3 346.256C280.593 332.096 283.74 315.576 283.74 296.696C283.74 278.76 280.593 263.341 274.3 250.44C268.321 237.539 259.825 227.627 248.812 220.704C238.113 213.781 225.526 210.32 211.052 210.32C187.137 210.32 168.572 218.501 155.356 234.864C142.14 251.227 135.532 272.939 135.532 300C135.532 327.061 141.982 348.773 154.884 365.136C167.785 381.499 185.878 389.68 209.164 389.68Z" fill="white"/>
<path d="M380.949 361.36C390.075 361.36 397.469 364.192 403.133 369.856C408.797 375.52 411.629 382.915 411.629 392.04C411.629 401.165 408.797 408.56 403.133 414.224C397.469 419.888 390.075 422.72 380.949 422.72C371.824 422.72 364.429 419.888 358.765 414.224C353.101 408.56 350.269 401.165 350.269 392.04C350.269 382.915 353.101 375.52 358.765 369.856C364.429 364.192 371.824 361.36 380.949 361.36Z" fill="#EA580B"/>
</svg>
