<svg width="256" height="256" viewBox="0 0 256 256" fill="none" xmlns="http://www.w3.org/2000/svg">
<rect width="256" height="256" rx="36" fill="#C71D65"/>
<rect width="256" height="256" rx="36" fill="url(#paint0_linear_101_5)"/>
<path d="M194 129C194 143.133 191.133 155.733 185.4 166.8C179.667 177.733 171.467 186.333 160.8 192.6C150.267 198.867 137.8 202 123.4 202H71.4V67.8C71.4 67.6667 71.1333 66.6667 70.6 64.8C70.2 62.9333 69.7333 61 69.2 59C68.6667 57 68.3333 55.8667 68.2 55.6H123.6C138.533 55.6 151.2 58.7333 161.6 65C172.133 71.1333 180.133 79.7333 185.6 90.8C191.2 101.733 194 114.467 194 129ZM164.4 129.8C164.4 123 163.6 116.4 162 110C160.533 103.467 158.067 97.6 154.6 92.4C151.267 87.2 146.867 83.0667 141.4 80C136.067 76.9333 129.533 75.4 121.8 75.4H99V182.2H122.2C132.333 182.2 140.467 179.733 146.6 174.8C152.867 169.733 157.4 163.2 160.2 155.2C163 147.2 164.4 138.733 164.4 129.8Z" fill="#F3F4F6"/>
<defs>
<linearGradient id="paint0_linear_101_5" x1="21" y1="233" x2="256" y2="-1.39475e-05" gradientUnits="userSpaceOnUse">
<stop stop-color="#DB504A"/>
<stop offset="1" stop-color="white" stop-opacity="0"/>
</linearGradient>
</defs>
</svg>
